<svg xmlns="http://www.w3.org/2000/svg" width="120" viewBox="0 0 120 29" fill="none"><g clip-path="url(#clip0_219_8318)"><path d="M19.3398 28.2052V14.3594H21.4745L27.2243 21.2054L32.9741 14.3594H35.1087V28.2052H33.551V16.1285L27.2243 23.6475L20.8975 16.1285V28.2052H19.3398ZM38.1804 28.2052V14.3594H50.8146V15.917H39.7379V20.4938H48.6416V22.0708H39.7379V26.6475H50.8146V28.2052H38.1804ZM59.2879 28.2052V15.917H53.1343V14.3594H66.98V15.917H60.8456V28.2052H59.2879ZM81.0718 28.2052L76.5527 22.8208H78.591L83.1295 28.186V28.2052H81.0718ZM69.3798 28.2052V14.3786H80.9179C81.341 14.3786 81.7256 14.4876 82.0718 14.7055C82.4306 14.9106 82.7127 15.1863 82.9179 15.5324C83.1229 15.8785 83.2256 16.2632 83.2256 16.6862V20.7438C83.2256 21.1669 83.1229 21.5515 82.9179 21.8977C82.7127 22.2438 82.4306 22.5258 82.0718 22.7438C81.7256 22.9488 81.341 23.0515 80.9179 23.0515H70.9373V28.2052H69.3798ZM71.6873 21.4746H80.9179C81.1231 21.4746 81.2962 21.404 81.4371 21.2631C81.591 21.1219 81.6679 20.9488 81.6679 20.7438V16.6862C81.6679 16.4811 81.591 16.308 81.4371 16.167C81.2962 16.0132 81.1231 15.9362 80.9179 15.9362H71.6873C71.4823 15.9362 71.3027 16.0132 71.1489 16.167C71.0079 16.308 70.9373 16.4811 70.9373 16.6862V20.7438C70.9373 20.9488 71.0079 21.1219 71.1489 21.2631C71.3027 21.404 71.4823 21.4746 71.6873 21.4746ZM88.4793 28.2052C88.0562 28.2052 87.665 28.1025 87.3062 27.8975C86.96 27.6923 86.6843 27.4167 86.4793 27.0706C86.2741 26.7115 86.1716 26.3206 86.1716 25.8975V14.3594H87.7293V25.8975C87.7293 26.1027 87.7996 26.2821 87.9408 26.436C88.0946 26.5769 88.2741 26.6475 88.4793 26.6475H97.7096C97.9148 26.6475 98.0879 26.5769 98.2289 26.436C98.3827 26.2821 98.4596 26.1027 98.4596 25.8975V14.3594H100.017V25.8975C100.017 26.3206 99.9148 26.7115 99.7097 27.0706C99.5045 27.4167 99.2225 27.6923 98.8635 27.8975C98.5173 28.1025 98.1327 28.2052 97.7096 28.2052H88.4793ZM103.097 28.2052V14.3594H105.231L110.981 21.2054L116.731 14.3594H118.865V28.2052H117.308V16.1285L110.981 23.6475L104.654 16.1285V28.2052H103.097Z" fill="currentColor"/><path fill-rule="evenodd" clip-rule="evenodd" d="M16.347 2.20312V28.2852H14.7972V4.36736L11.4863 5.49372L10.9257 4.04747L9.94998 4.36736L8.17546 6.62009L1.55368 8.8728V28.2852H0.00390625V7.76303L8.17546 4.98309L9.94998 4.36736L10.9257 4.04747L16.347 2.20312Z" fill="currentColor"/><path fill-rule="evenodd" clip-rule="evenodd" d="M10.8508 1.14409L13.2099 0.09375V28.3773H3.34766V4.48478L10.0759 1.4891V26.4399H10.8508V1.14409ZM4.29048 22.729H7.80285V26.4365H4.29048V22.729Z" fill="currentColor"/></g><defs><clipPath id="clip0_219_8318"><rect width="120" height="28.4615" fill="currentColor"/></clipPath></defs></svg>
